<svg height="48pt" viewBox="0 0 48 48" width="48pt" xmlns="http://www.w3.org/2000/svg" xmlns:xlink="http://www.w3.org/1999/xlink"><linearGradient id="a" gradientTransform="matrix(45.007 0 0 34.066 1.222 12.142)" gradientUnits="userSpaceOnUse" x1=".031183" x2=".95838" y1=".108666" y2=".975195"><stop offset="0" stop-color="#c751fb"/><stop offset=".975" stop-color="#6d44de"/></linearGradient><path d="m42 16.792-40.778 7v-7.792c0-2.76 2.24-5 5-5h7.363c1.103 0 2.73.519 3.629 1.159l2.825 2.01c.899.64 2.517 1.285 3.61 1.44l8.351 1.183z" fill="#aa46d8"/><path d="m5 15.772c-1.997-.269-2.608-1.449-1.925-3.63q-.16.061-.209.168c-.697.588-1.743 2.285-1.637 3.482v25.416c0 2.76 2.24 5 5 5h35c2.76 0 5-2.24 5-5v-20.436c0-2.76-2.24-5-5-5z" fill="url(#a)"/><path d="m32.794 26.478c.408 0 .739-.331.739-.739 0-.408-.331-.739-.739-.739h-5.946c-1.02 0-1.848.828-1.848 1.848v13.304c0 1.02.828 1.848 1.848 1.848h13.304c1.02 0 1.848-.828 1.848-1.848v-7.358c0-.408-.331-.739-.739-.739h-4.838c-.204 0-.369-.166-.369-.37v-3.3c0-.204.129-.266.288-.139l3.718 2.974c.318.255.783.203 1.038-.115.255-.318.204-.783-.114-1.038l-5.543-4.434c-.478-.382-.866-.195-.866.417v6.375c0 .611.497 1.108 1.109 1.108h4.099c.408 0 .739.331.739.739v5.141c0 .612-.497 1.109-1.109 1.109h-11.826c-.612 0-1.109-.497-1.109-1.109v-11.826c0-.612.497-1.109 1.109-1.109zm-4.352 10.522h9.91c.358 0 .648.29.648.648v.204c0 .358-.29.648-.648.648h-9.91c-.357 0-.648-.29-.648-.648v-.204c0-.358.291-.648.648-.648zm-.025-3h4.83c.344 0 .623.279.623.623v.254c0 .344-.279.623-.623.623h-4.83c-.344 0-.623-.279-.623-.623v-.254c0-.344.279-.623.623-.623zm0-3.068h4.83c.344 0 .623.279.623.622v.255c0 .344-.279.623-.623.623h-4.83c-.344 0-.623-.279-.623-.623v-.255c0-.343.279-.622.623-.622z" fill="#fff" fill-rule="evenodd"/></svg>